<?xml version="1.0" encoding="UTF-8"?>
<svg xmlns="http://www.w3.org/2000/svg" viewBox="8 8 240 240" width="256" height="256">
  <defs>
    <linearGradient id="bg" x1="0" y1="0" x2="1" y2="1">
      <stop offset="0%" stop-color="#1e40af"/>
      <stop offset="100%" stop-color="#2563eb"/>
    </linearGradient>
    <linearGradient id="db" x1="0" y1="0" x2="0" y2="1">
      <stop offset="0%" stop-color="#60a5fa"/>
      <stop offset="100%" stop-color="#3b82f6"/>
    </linearGradient>
    <linearGradient id="conn" x1="0" y1="0" x2="1" y2="0">
      <stop offset="0%" stop-color="#93c5fd"/>
      <stop offset="100%" stop-color="#ffffff"/>
    </linearGradient>
  </defs>

  <!-- 圆角背景 -->
  <rect x="8" y="8" width="240" height="240" rx="48" fill="url(#bg)"/>

  <!-- 数据库圆柱体 -->
  <ellipse cx="100" cy="90" rx="42" ry="14" fill="#93c5fd" opacity="0.5"/>
  <rect x="58" y="90" width="84" height="76" fill="url(#db)" rx="0"/>
  <ellipse cx="100" cy="90" rx="42" ry="14" fill="url(#db)"/>
  <ellipse cx="100" cy="130" rx="42" ry="14" fill="#2563eb" opacity="0.4"/>
  <ellipse cx="100" cy="166" rx="42" ry="14" fill="#1d4ed8" opacity="0.6"/>

  <!-- 数据库内部线条 -->
  <line x1="70" y1="110" x2="130" y2="110" stroke="#ffffff" stroke-width="2" opacity="0.3"/>
  <line x1="70" y1="130" x2="130" y2="130" stroke="#ffffff" stroke-width="2" opacity="0.3"/>
  <line x1="70" y1="150" x2="130" y2="150" stroke="#ffffff" stroke-width="2" opacity="0.3"/>

  <!-- 连接桥/箭头 -->
  <path d="M142 128 L170 128" stroke="url(#conn)" stroke-width="4" stroke-linecap="round" fill="none"/>
  <path d="M165 120 L175 128 L165 136" stroke="#ffffff" stroke-width="3" stroke-linecap="round" stroke-linejoin="round" fill="none"/>

  <!-- AI/芯片节点 -->
  <rect x="175" y="108" width="40" height="40" rx="10" fill="#ffffff" opacity="0.95"/>
  <rect x="183" y="116" width="24" height="24" rx="4" fill="#1e40af"/>
  <!-- 芯片引脚 -->
  <line x1="189" y1="108" x2="189" y2="102" stroke="#ffffff" stroke-width="2.5" stroke-linecap="round"/>
  <line x1="195" y1="108" x2="195" y2="102" stroke="#ffffff" stroke-width="2.5" stroke-linecap="round"/>
  <line x1="201" y1="108" x2="201" y2="102" stroke="#ffffff" stroke-width="2.5" stroke-linecap="round"/>
  <line x1="189" y1="148" x2="189" y2="154" stroke="#ffffff" stroke-width="2.5" stroke-linecap="round"/>
  <line x1="195" y1="148" x2="195" y2="154" stroke="#ffffff" stroke-width="2.5" stroke-linecap="round"/>
  <line x1="201" y1="148" x2="201" y2="154" stroke="#ffffff" stroke-width="2.5" stroke-linecap="round"/>
  <line x1="175" y1="118" x2="169" y2="118" stroke="#ffffff" stroke-width="2.5" stroke-linecap="round"/>
  <line x1="175" y1="128" x2="169" y2="128" stroke="#ffffff" stroke-width="2.5" stroke-linecap="round"/>
  <line x1="175" y1="138" x2="169" y2="138" stroke="#ffffff" stroke-width="2.5" stroke-linecap="round"/>
  <line x1="215" y1="118" x2="221" y2="118" stroke="#ffffff" stroke-width="2.5" stroke-linecap="round"/>
  <line x1="215" y1="128" x2="221" y2="128" stroke="#ffffff" stroke-width="2.5" stroke-linecap="round"/>
  <line x1="215" y1="138" x2="221" y2="138" stroke="#ffffff" stroke-width="2.5" stroke-linecap="round"/>

  <!-- 齿轮/设置小图标（右下角） -->
  <circle cx="195" cy="195" r="22" fill="#ffffff" opacity="0.15"/>
  <circle cx="195" cy="195" r="10" fill="none" stroke="#ffffff" stroke-width="3"/>
  <line x1="195" y1="178" x2="195" y2="183" stroke="#ffffff" stroke-width="3" stroke-linecap="round"/>
  <line x1="195" y1="207" x2="195" y2="212" stroke="#ffffff" stroke-width="3" stroke-linecap="round"/>
  <line x1="178" y1="195" x2="183" y2="195" stroke="#ffffff" stroke-width="3" stroke-linecap="round"/>
  <line x1="207" y1="195" x2="212" y2="195" stroke="#ffffff" stroke-width="3" stroke-linecap="round"/>
  <line x1="183" y1="183" x2="186.5" y2="186.5" stroke="#ffffff" stroke-width="3" stroke-linecap="round"/>
  <line x1="203.5" y1="203.5" x2="207" y2="207" stroke="#ffffff" stroke-width="3" stroke-linecap="round"/>
  <line x1="183" y1="207" x2="186.5" y2="203.5" stroke="#ffffff" stroke-width="3" stroke-linecap="round"/>
  <line x1="203.5" y1="186.5" x2="207" y2="183" stroke="#ffffff" stroke-width="3" stroke-linecap="round"/>
</svg>
